<svg viewBox="0 0 100 101" fill="none" xmlns="http://www.w3.org/2000/svg">
<rect y="0.208496" width="100" height="100" rx="50" fill="#154F95"/>
<path d="M17.4827 42.826H19.6617V53.322H17.4827V42.826ZM25.0013 51.8053C25.5187 51.8053 25.9388 51.7483 26.2616 51.6344C26.874 51.416 27.1802 51.0101 27.1802 50.4167C27.1802 50.0702 27.0283 49.802 26.7245 49.6121C26.4207 49.427 25.9436 49.2632 25.2932 49.1208L24.1824 48.8715C23.0905 48.6247 22.3357 48.3565 21.918 48.0669C21.2106 47.5827 20.857 46.8255 20.857 45.7954C20.857 44.8554 21.1988 44.0745 21.8824 43.4526C22.566 42.8308 23.57 42.5198 24.8944 42.5198C26.0005 42.5198 26.9429 42.8141 27.7214 43.4028C28.5047 43.9867 28.9153 44.8364 28.9533 45.952H26.8455C26.8076 45.3207 26.5322 44.872 26.0195 44.6062C25.6777 44.4306 25.2529 44.3427 24.7449 44.3427C24.18 44.3427 23.729 44.4567 23.392 44.6845C23.0549 44.9124 22.8864 45.2305 22.8864 45.6387C22.8864 46.0137 23.0525 46.2938 23.3848 46.479C23.5985 46.6024 24.0542 46.7472 24.752 46.9133L26.5607 47.3477C27.3535 47.5376 27.9516 47.7916 28.3551 48.1096C28.9818 48.6033 29.2951 49.3178 29.2951 50.253C29.2951 51.2119 28.9272 52.0094 28.1914 52.6455C27.4603 53.2769 26.4254 53.5926 25.0867 53.5926C23.7195 53.5926 22.6443 53.2817 21.861 52.6598C21.0777 52.0332 20.6861 51.1739 20.6861 50.0821H22.7796C22.846 50.5615 22.9766 50.9199 23.1712 51.1573C23.5273 51.5893 24.1373 51.8053 25.0013 51.8053ZM36.543 51.1644H32.6764L31.9501 53.322H29.6572L33.4027 42.826H35.8808L39.5978 53.322H37.2195L36.543 51.1644ZM35.9306 49.3558L34.6204 45.2257L33.2675 49.3558H35.9306ZM47.7216 48.7362H42.6231V51.435H48.4337V53.322H40.4798V42.826H48.1773V44.6845H42.6231V46.9133H47.7216V48.7362ZM54.8403 45.0548C54.6125 45.3586 54.5033 45.7645 54.5128 46.2725H52.6187C52.6376 45.7598 52.7255 45.2732 52.8821 44.8127C53.0483 44.4092 53.3094 44.0365 53.6654 43.6947C53.9312 43.4526 54.2469 43.2675 54.6125 43.1393C54.978 43.0111 55.4266 42.9471 55.9583 42.9471C56.9457 42.9471 57.7409 43.2034 58.3438 43.7161C58.9514 44.2241 59.2552 44.9076 59.2552 45.7669C59.2552 46.3745 59.0748 46.8872 58.714 47.305C58.4862 47.5661 58.2488 47.7441 58.002 47.839C58.1871 47.839 58.4529 47.9981 58.7995 48.3161C59.3169 48.7956 59.5756 49.4507 59.5756 50.2815C59.5756 51.1549 59.2718 51.924 58.6642 52.5886C58.0613 53.2484 57.1665 53.5784 55.9797 53.5784C54.5175 53.5784 53.5016 53.1013 52.932 52.1471C52.6329 51.6391 52.4667 50.9745 52.4335 50.1533H54.4273C54.4273 50.5663 54.4938 50.9081 54.6267 51.1787C54.8736 51.6771 55.3222 51.9264 55.9725 51.9264C56.3713 51.9264 56.7178 51.7911 57.0122 51.5205C57.3112 51.2451 57.4608 50.8511 57.4608 50.3384C57.4608 49.6596 57.1854 49.2062 56.6348 48.9784C56.3215 48.8502 55.8277 48.7861 55.1536 48.7861V47.3335C55.8135 47.324 56.274 47.2599 56.5351 47.1412C56.9861 46.9418 57.2115 46.5383 57.2115 45.9307C57.2115 45.5366 57.0952 45.2162 56.8626 44.9694C56.6348 44.7225 56.312 44.5991 55.8942 44.5991C55.4147 44.5991 55.0635 44.751 54.8403 45.0548ZM63.6619 53.5784C62.347 53.5784 61.4237 53.1179 60.892 52.1969C60.365 51.276 60.1016 49.9634 60.1016 48.2592C60.1016 46.5549 60.365 45.2399 60.892 44.3142C61.4237 43.3885 62.347 42.9257 63.6619 42.9257C64.9769 42.9257 65.9002 43.3885 66.4319 44.3142C66.9589 45.2399 67.2223 46.5549 67.2223 48.2592C67.2223 49.9634 66.9565 51.276 66.4248 52.1969C65.8979 53.1179 64.9769 53.5784 63.6619 53.5784ZM64.8511 50.9793C65.0363 50.3527 65.1288 49.4459 65.1288 48.2592C65.1288 47.0154 65.0339 46.0944 64.844 45.4963C64.6589 44.8982 64.2648 44.5991 63.6619 44.5991C63.0591 44.5991 62.6603 44.8982 62.4657 45.4963C62.271 46.0944 62.1737 47.0154 62.1737 48.2592C62.1737 49.4459 62.271 50.355 62.4657 50.9864C62.6603 51.613 63.0591 51.9264 63.6619 51.9264C64.2648 51.9264 64.6612 51.6107 64.8511 50.9793ZM71.2588 53.5784C69.9438 53.5784 69.0205 53.1179 68.4888 52.1969C67.9619 51.276 67.6984 49.9634 67.6984 48.2592C67.6984 46.5549 67.9619 45.2399 68.4888 44.3142C69.0205 43.3885 69.9438 42.9257 71.2588 42.9257C72.5738 42.9257 73.4971 43.3885 74.0288 44.3142C74.5557 45.2399 74.8192 46.5549 74.8192 48.2592C74.8192 49.9634 74.5533 51.276 74.0216 52.1969C73.4947 53.1179 72.5738 53.5784 71.2588 53.5784ZM72.448 50.9793C72.6331 50.3527 72.7257 49.4459 72.7257 48.2592C72.7257 47.0154 72.6307 46.0944 72.4408 45.4963C72.2557 44.8982 71.8617 44.5991 71.2588 44.5991C70.6559 44.5991 70.2571 44.8982 70.0625 45.4963C69.8679 46.0944 69.7705 47.0154 69.7705 48.2592C69.7705 49.4459 69.8679 50.355 70.0625 50.9864C70.2571 51.613 70.6559 51.9264 71.2588 51.9264C71.8617 51.9264 72.2581 51.6107 72.448 50.9793ZM78.8556 53.5784C77.5407 53.5784 76.6173 53.1179 76.0857 52.1969C75.5587 51.276 75.2952 49.9634 75.2952 48.2592C75.2952 46.5549 75.5587 45.2399 76.0857 44.3142C76.6173 43.3885 77.5407 42.9257 78.8556 42.9257C80.1706 42.9257 81.0939 43.3885 81.6256 44.3142C82.1525 45.2399 82.416 46.5549 82.416 48.2592C82.416 49.9634 82.1502 51.276 81.6185 52.1969C81.0916 53.1179 80.1706 53.5784 78.8556 53.5784ZM80.0448 50.9793C80.2299 50.3527 80.3225 49.4459 80.3225 48.2592C80.3225 47.0154 80.2276 46.0944 80.0377 45.4963C79.8525 44.8982 79.4585 44.5991 78.8556 44.5991C78.2527 44.5991 77.854 44.8982 77.6593 45.4963C77.4647 46.0944 77.3674 47.0154 77.3674 48.2592C77.3674 49.4459 77.4647 50.355 77.6593 50.9864C77.854 51.613 78.2527 51.9264 78.8556 51.9264C79.4585 51.9264 79.8549 51.6107 80.0448 50.9793Z" fill="white"/>
<path d="M31.2453 62.9205C31.0936 62.2558 30.8118 61.7826 30.4 61.5008C29.9882 61.219 29.4499 61.0782 28.7852 61.0782C28.3156 61.0782 27.911 61.1721 27.5714 61.3599C27.2319 61.5478 26.9501 61.8007 26.7261 62.1186C26.5094 62.4365 26.3468 62.8049 26.2384 63.224C26.1373 63.6358 26.0867 64.0729 26.0867 64.5353C26.0867 64.9688 26.13 65.3951 26.2167 65.8141C26.3107 66.2332 26.4624 66.6089 26.6719 66.9412C26.8814 67.2664 27.1632 67.5301 27.5172 67.7324C27.8713 67.9347 28.3156 68.0358 28.8503 68.0358C29.1826 68.0358 29.4861 67.9816 29.7606 67.8733C30.0352 67.7649 30.2736 67.6168 30.4759 67.4289C30.6854 67.2339 30.8588 67.0063 30.9961 66.7462C31.1406 66.4861 31.249 66.2007 31.3212 65.89H32.0907C32.004 66.2657 31.8775 66.6233 31.7114 66.9629C31.5452 67.2953 31.3248 67.5879 31.0503 67.8408C30.7829 68.0936 30.4542 68.2959 30.0641 68.4477C29.6811 68.5922 29.2296 68.6644 28.7094 68.6644C28.1097 68.6644 27.5967 68.556 27.1704 68.3393C26.7442 68.1153 26.3938 67.8155 26.1192 67.4398C25.8519 67.0641 25.6568 66.6306 25.534 66.1393C25.4112 65.6407 25.3497 65.1133 25.3497 64.557C25.3497 63.8128 25.4401 63.1806 25.6207 62.6604C25.8085 62.1402 26.065 61.7176 26.3901 61.3924C26.7153 61.0601 27.0982 60.8217 27.5389 60.6772C27.9796 60.5254 28.4601 60.4496 28.9803 60.4496C29.3777 60.4496 29.7462 60.5038 30.0857 60.6121C30.4325 60.7133 30.736 60.8686 30.9961 61.0782C31.2634 61.2877 31.4802 61.5478 31.6463 61.8585C31.8197 62.1619 31.9389 62.5159 32.004 62.9205H31.2453ZM33.0078 68.4585V60.6555H38.1989V61.2841H33.7447V64.1018H37.7654V64.7304H33.7447V67.8299H38.3073V68.4585H33.0078ZM42.1358 64.2861C42.4104 64.2861 42.6633 64.2572 42.8945 64.1994C43.1329 64.1416 43.3388 64.0512 43.5122 63.9284C43.6856 63.7984 43.8229 63.6358 43.924 63.4407C44.0252 63.2457 44.0758 63.0108 44.0758 62.7363C44.0758 62.4473 44.0216 62.2089 43.9132 62.021C43.812 61.8332 43.6712 61.6851 43.4905 61.5767C43.3171 61.4683 43.1148 61.3924 42.8836 61.3491C42.6597 61.3057 42.4248 61.2841 42.1792 61.2841H39.8383V64.2861H42.1358ZM39.8383 64.9146V68.4585H39.1013V60.6555H42.1575C43.0173 60.6555 43.6748 60.8181 44.1299 61.1432C44.5851 61.4611 44.8127 61.9813 44.8127 62.7038C44.8127 63.1951 44.7116 63.5852 44.5093 63.8742C44.3142 64.1632 43.9927 64.4089 43.5447 64.6112C43.7759 64.6907 43.9565 64.8063 44.0866 64.958C44.2166 65.1097 44.3142 65.2831 44.3792 65.4782C44.4442 65.6733 44.484 65.8792 44.4984 66.0959C44.5201 66.3127 44.5345 66.5222 44.5418 66.7245C44.549 67.0207 44.5598 67.2664 44.5743 67.4614C44.596 67.6565 44.6176 67.8155 44.6393 67.9383C44.6682 68.0611 44.7007 68.1587 44.7368 68.2309C44.773 68.2959 44.8163 68.3465 44.8669 68.3826V68.4585H44.0541C43.9746 68.3284 43.9168 68.1478 43.8807 67.9166C43.8518 67.6854 43.8265 67.4434 43.8048 67.1905C43.7904 66.9376 43.7759 66.692 43.7615 66.4536C43.7542 66.2151 43.7362 66.0201 43.7073 65.8683C43.6639 65.6588 43.5917 65.4926 43.4905 65.3698C43.3966 65.2398 43.281 65.1422 43.1437 65.0772C43.0065 65.0122 42.8511 64.9688 42.6777 64.9471C42.5115 64.9255 42.3381 64.9146 42.1575 64.9146H39.8383ZM44.9249 60.6555H50.6038V61.2841H48.1328V68.4585H47.3959V61.2841H44.9249V60.6555ZM51.3907 68.4585V60.6555H52.1276V68.4585H51.3907ZM53.5502 68.4585V60.6555H58.5788V61.2841H54.2871V64.1018H58.1886V64.7304H54.2871V68.4585H53.5502ZM59.3873 68.4585V60.6555H60.1242V68.4585H59.3873ZM61.6227 68.4585V60.6555H66.8138V61.2841H62.3596V64.1018H66.3803V64.7304H62.3596V67.8299H66.9222V68.4585H61.6227ZM67.7271 68.4585V60.6555H70.3931C70.6099 60.6555 70.823 60.6627 71.0325 60.6772C71.2421 60.6844 71.448 60.7097 71.6503 60.753C71.8526 60.7892 72.0476 60.847 72.2355 60.9264C72.4306 61.0059 72.6184 61.1107 72.799 61.2407C73.0591 61.4286 73.2723 61.6598 73.4385 61.9343C73.6046 62.2016 73.7347 62.487 73.8286 62.7905C73.9298 63.0867 73.9984 63.3902 74.0345 63.7008C74.0779 64.0043 74.0995 64.2861 74.0995 64.5462C74.0995 64.8063 74.0815 65.07 74.0454 65.3373C74.0165 65.6046 73.9659 65.8683 73.8936 66.1284C73.8214 66.3813 73.7238 66.627 73.601 66.8654C73.4854 67.0966 73.3373 67.3097 73.1567 67.5048C72.9761 67.7071 72.7774 67.8697 72.5606 67.9925C72.3511 68.1153 72.1271 68.2128 71.8887 68.2851C71.6575 68.3501 71.4155 68.3971 71.1626 68.426C70.9097 68.4477 70.6532 68.4585 70.3931 68.4585H67.7271ZM68.464 67.8299H70.2306C70.5629 67.8299 70.8736 67.8119 71.1626 67.7757C71.4588 67.7324 71.7586 67.6312 72.0621 67.4723C72.3222 67.3422 72.5353 67.1652 72.7015 66.9412C72.8677 66.7173 72.9977 66.4752 73.0917 66.2151C73.1928 65.9478 73.2614 65.6696 73.2976 65.3806C73.3409 65.0916 73.3626 64.8135 73.3626 64.5462C73.3626 64.2644 73.3445 63.979 73.3084 63.69C73.2723 63.3938 73.2036 63.1156 73.1025 62.8555C73.0013 62.5882 72.8641 62.3461 72.6907 62.1294C72.5173 61.9054 72.2933 61.7212 72.0187 61.5767C71.7875 61.4539 71.513 61.3744 71.1951 61.3383C70.8772 61.3021 70.5557 61.2841 70.2306 61.2841H68.464V67.8299Z" fill="white"/>
</svg>
