<svg width="24" viewBox="0 0 32 44" fill="black" xmlns="http://www.w3.org/2000/svg">
<path d="M17.4202 25.0231C16.4828 25.0231 15.5459 25.0415 14.609 25.0415C14.609 25.325 14.609 25.7191 14.609 25.8594C14.609 28.1276 14.5876 30.3843 14.6261 32.6454C14.6583 34.0853 15.2399 35.4593 16.2533 36.4894C17.2666 37.5195 18.6361 38.1287 20.0845 38.1937C23.2139 38.3029 25.7782 36.1099 26.0779 33.0607C26.1307 32.4937 26.1507 31.9266 26.1521 31.3667C26.1588 23.9679 26.1626 16.5701 26.1635 9.17323C26.1635 8.70118 26.1635 8.22913 26.1963 7.75566C26.2354 7.01826 26.5575 6.32378 27.0964 5.81512C27.6352 5.30647 28.3498 5.02233 29.0932 5.02117C29.8495 5.03332 30.5725 5.33299 31.1132 5.85852C31.6539 6.38405 31.9713 7.09547 32 7.84639C32 7.93995 32 8.03351 32 8.1299C32 16.1874 32 24.2453 32 32.3037C31.99 37.974 28.2627 42.5357 22.6902 43.7378C15.9618 45.1894 9.27626 40.2364 8.8239 33.4165C8.69119 31.3965 8.71688 29.3665 8.71402 27.3408C8.70403 22.3694 8.71402 17.398 8.72972 12.4266C8.72991 12.0266 8.75948 11.6272 8.81819 11.2315C9.03938 9.77428 10.1938 8.80183 11.6722 8.80183C13.1506 8.80183 14.2922 9.7757 14.5091 11.2514C14.5716 11.6942 14.6021 12.141 14.6004 12.5882C14.609 14.7315 14.6004 16.8735 14.6004 19.0721H17.4017C17.4017 18.4909 17.4017 17.9381 17.4017 17.371C17.4017 15.463 17.4245 13.5549 17.3931 11.6469C17.3446 8.76355 15.1884 6.35794 12.4414 6.07442C9.3362 5.75264 6.73333 7.50759 6.04694 10.4335C5.92422 11.0331 5.8706 11.6447 5.88711 12.2564C5.8776 19.607 5.87379 26.9581 5.87569 34.3096C5.89881 34.8732 5.85087 35.4376 5.73299 35.9894C5.36768 37.3715 4.04912 38.1966 2.57502 38.0491C1.24219 37.9159 0.170501 36.7733 0.0306536 35.3231C0.0218151 35.2289 0.0180042 35.1343 0.0192373 35.0396C0.0192373 27.1707 -0.0392685 19.3046 0.0477792 11.4314C0.109141 5.77532 4.41729 1.06048 9.97407 0.313421C15.7677 -0.463407 21.1419 2.89056 22.7787 8.39357C23.1185 9.59296 23.29 10.8332 23.2881 12.0792C23.338 18.7929 23.3166 25.5079 23.3124 32.2229C23.3124 33.8262 22.2721 35.1162 20.8536 35.326C19.3866 35.5429 18.0139 34.7178 17.6057 33.3017C17.4746 32.7766 17.4146 32.2365 17.4274 31.6956C17.4088 29.5139 17.4202 27.3252 17.4202 25.0231Z" fill=""/>
</svg>
