<svg width="57" height="77" viewBox="0 0 57 77" fill="none" xmlns="http://www.w3.org/2000/svg">
<defs>
<radialGradient id="paint0_radial_250_132" cx="0" cy="0" r="1" gradientUnits="userSpaceOnUse" gradientTransform="translate(29.0733 39.2435) rotate(90) scale(37.3109 27.0852)">
<stop stop-color="#D33C2E"/>
<stop offset="0.145833" stop-color="#DC7B43"/>
<stop offset="0.3125" stop-color="#F1D158"/>
<stop offset="0.458333" stop-color="#B0DE61"/>
<stop offset="0.59375" stop-color="#75D79F"/>
<stop offset="0.729167" stop-color="#60B8E2"/>
<stop offset="0.875" stop-color="#4754D3"/>
<stop offset="1" stop-color="#C247DF"/>
</radialGradient>
<linearGradient id="paint1_linear_250_132" x1="27.1409" y1="0" x2="27.1409" y2="74.6217" gradientUnits="userSpaceOnUse">
<stop stop-color="#D33C2E"/>
<stop offset="0.145833" stop-color="#DC7B43"/>
<stop offset="0.3125" stop-color="#F1D158"/>
<stop offset="0.458333" stop-color="#B0DE61"/>
<stop offset="0.59375" stop-color="#75D79F"/>
<stop offset="0.729167" stop-color="#60B8E2"/>
<stop offset="0.875" stop-color="#4754D3"/>
<stop offset="1" stop-color="#C247DF"/>
</linearGradient>
</defs>
<path d="M31.4756 46.6096C31.4773 45.2955 30.4121 44.2327 29.098 44.2457C28.7694 44.249 28.4409 44.2522 28.1124 44.2549C27.3426 44.2612 26.7186 44.8855 26.7186 45.6553V45.6553C26.7186 49.5204 26.6823 53.3661 26.7475 57.2191C26.802 59.6729 27.7866 62.0144 29.502 63.7697C31.2174 65.5251 33.5356 66.5633 35.9875 66.6741C41.2851 66.8601 45.6261 63.1231 46.1334 57.9269C46.2228 56.9607 46.2566 55.9944 46.259 55.0402C46.2703 42.4319 46.2767 29.8253 46.2783 17.2203C46.2783 16.4158 46.2783 15.6114 46.3339 14.8046C46.4 13.548 46.9453 12.3645 47.8575 11.4977C48.7697 10.6309 49.9794 10.1467 51.2377 10.1447C52.5181 10.1654 53.7419 10.6761 54.6572 11.5717C55.5726 12.4672 56.1098 13.6795 56.1585 14.9592C56.1585 15.1186 56.1585 15.278 56.1585 15.4423C56.1585 29.1731 56.1585 42.9046 56.1585 56.637C56.1416 66.2997 49.8318 74.0734 40.3986 76.1219C29.0086 78.5955 17.6911 70.1551 16.9254 58.5333C16.7007 55.0909 16.7442 51.6317 16.7394 48.1796C16.7225 39.7078 16.7394 31.236 16.7659 22.7642C16.7663 22.0827 16.8163 21.4021 16.9157 20.7278C17.2901 18.2445 19.2444 16.5873 21.7471 16.5873C24.2497 16.5873 26.1823 18.2469 26.5495 20.7616C26.6553 21.5163 26.7069 22.2776 26.7041 23.0396C26.7155 25.9178 26.7089 28.7944 26.7056 31.7179C26.7041 33.0274 27.7656 34.089 29.075 34.089V34.089C30.3845 34.089 31.446 33.0274 31.446 31.718C31.446 31.5426 31.446 31.3668 31.446 31.1902C31.446 27.9386 31.4847 24.6871 31.4315 21.4356C31.3494 16.5221 27.6993 12.4227 23.0491 11.9396C17.7926 11.3912 13.3864 14.3818 12.2244 19.3678C12.0167 20.3897 11.9259 21.4319 11.9539 22.4744C11.9378 35.0005 11.9313 47.5274 11.9346 60.0551C11.9737 61.0157 11.8925 61.9773 11.693 62.9177C11.0746 65.273 8.84249 66.679 6.34709 66.4277C4.09084 66.2006 2.27667 64.2536 2.03993 61.7824C2.02497 61.6218 2.01852 61.4605 2.0206 61.2992C2.0206 47.8898 1.92156 34.4851 2.06892 21.0684C2.17279 11.4299 9.46574 3.3953 18.8724 2.12224C28.6801 0.798442 37.7775 6.51394 40.5483 15.8916C41.1237 17.9355 41.4139 20.0491 41.4107 22.1724C41.4953 33.6131 41.459 45.0562 41.4518 56.4993C41.4518 59.2314 39.6908 61.4297 37.2896 61.7872C34.8063 62.1568 32.4824 60.7509 31.7915 58.3376C31.5695 57.4428 31.4679 56.5223 31.4895 55.6006C31.4645 52.6417 31.4717 49.6752 31.4756 46.6096Z" fill="url(#paint0_radial_250_132)"/>
<path d="M29.5433 44.677C29.5449 43.3629 28.4797 42.3001 27.1656 42.3131C26.8371 42.3163 26.5085 42.3196 26.18 42.3223C25.4102 42.3286 24.7862 42.9528 24.7862 43.7226V43.7226C24.7862 47.5877 24.7499 51.4335 24.8152 55.2865C24.8696 57.7403 25.8542 60.0818 27.5696 61.8371C29.2851 63.5925 31.6033 64.6306 34.0552 64.7415C39.3527 64.9275 43.6937 61.1904 44.201 55.9943C44.2904 55.028 44.3242 54.0618 44.3266 53.1076C44.3379 40.4993 44.3444 27.8927 44.346 15.2876C44.346 14.4832 44.346 13.6788 44.4015 12.872C44.4677 11.6153 45.0129 10.4319 45.9251 9.56508C46.8373 8.69828 48.047 8.21407 49.3054 8.2121C50.5858 8.23281 51.8095 8.74348 52.7249 9.63904C53.6402 10.5346 54.1775 11.7469 54.2261 13.0266C54.2261 13.186 54.2261 13.3454 54.2261 13.5097C54.2261 27.2404 54.2261 40.972 54.2261 54.7043C54.2092 64.3671 47.8994 72.1407 38.4662 74.1892C27.0762 76.6629 15.7588 68.2225 14.993 56.6007C14.7683 53.1583 14.8118 49.699 14.807 46.247C14.7901 37.7752 14.807 29.3034 14.8336 20.8316C14.8339 20.1501 14.8839 19.4695 14.9833 18.7952C15.3578 16.3119 17.3121 14.6547 19.8147 14.6547C22.3173 14.6547 24.2499 16.3143 24.6171 18.829C24.7229 19.5837 24.7746 20.345 24.7717 21.107C24.7831 23.9851 24.7765 26.8618 24.7732 29.7853C24.7717 31.0948 25.8332 32.1564 27.1427 32.1564V32.1564C28.4521 32.1564 29.5137 31.0948 29.5137 29.7854C29.5137 29.6099 29.5137 29.4341 29.5137 29.2575C29.5137 26.006 29.5523 22.7545 29.4992 19.503C29.417 14.5895 25.7669 10.4901 21.1168 10.007C15.8602 9.4586 11.454 12.4492 10.2921 17.4352C10.0843 18.4571 9.99357 19.4993 10.0215 20.5417C10.0054 33.0679 9.99897 45.5948 10.0022 58.1225C10.0413 59.0831 9.96017 60.0447 9.76063 60.9851C9.14221 63.3404 6.91012 64.7463 4.41472 64.4951C2.15847 64.268 0.344292 62.321 0.107555 59.8497C0.0925933 59.6892 0.086142 59.5279 0.0882294 59.3666C0.0882294 45.9572 -0.0108107 32.5525 0.136546 19.1358C0.24042 9.49725 7.53337 1.46268 16.94 0.189619C26.7477 -1.13417 35.8452 4.58133 38.616 13.959C39.1913 16.0029 39.4815 18.1165 39.4784 20.2398C39.5629 31.6805 39.5267 43.1236 39.5194 54.5666C39.5194 57.2988 37.7584 59.4971 35.3572 59.8546C32.8739 60.2242 30.55 58.8183 29.8591 56.405C29.6371 55.5102 29.5355 54.5897 29.5572 53.668C29.5322 50.7091 29.5393 47.7426 29.5433 44.677Z" fill="url(#paint1_linear_250_132)"/>
</svg>
